<svg xmlns="http://www.w3.org/2000/svg" width="1080" height="1080" viewBox="0 0 1080 1080">
  <defs>
    <linearGradient id="bgGrad" x1="0" y1="0" x2="1" y2="1">
      <stop offset="0%" stop-color="#0a0a0a"/>
      <stop offset="100%" stop-color="#111111"/>
    </linearGradient>
    <linearGradient id="glowGrad" x1="0.5" y1="0" x2="0.5" y2="1">
      <stop offset="0%" stop-color="#c8f135" stop-opacity="0.12"/>
      <stop offset="100%" stop-color="#c8f135" stop-opacity="0"/>
    </linearGradient>
    <linearGradient id="cardGrad" x1="0" y1="0" x2="0" y2="1">
      <stop offset="0%" stop-color="#181818"/>
      <stop offset="100%" stop-color="#131313"/>
    </linearGradient>
    <filter id="glow">
      <feGaussianBlur stdDeviation="30" result="blur"/>
      <feMerge><feMergeNode in="blur"/><feMergeNode in="SourceGraphic"/></feMerge>
    </filter>
    <clipPath id="roundCard">
      <rect x="64" y="420" width="952" height="380" rx="20"/>
    </clipPath>
  </defs>

  <!-- Background -->
  <rect width="1080" height="1080" fill="url(#bgGrad)"/>

  <!-- Subtle grid pattern -->
  <g opacity="0.04" stroke="#c8f135" stroke-width="0.5">
    <line x1="0" y1="180" x2="1080" y2="180"/>
    <line x1="0" y1="360" x2="1080" y2="360"/>
    <line x1="0" y1="540" x2="1080" y2="540"/>
    <line x1="0" y1="720" x2="1080" y2="720"/>
    <line x1="0" y1="900" x2="1080" y2="900"/>
    <line x1="180" y1="0" x2="180" y2="1080"/>
    <line x1="360" y1="0" x2="360" y2="1080"/>
    <line x1="540" y1="0" x2="540" y2="1080"/>
    <line x1="720" y1="0" x2="720" y2="1080"/>
    <line x1="900" y1="0" x2="900" y2="1080"/>
  </g>

  <!-- Top glow accent -->
  <ellipse cx="540" cy="0" rx="500" ry="300" fill="url(#glowGrad)"/>

  <!-- SWFT Logo top-left -->
  <text x="72" y="82" font-family="Arial Black, Arial, sans-serif" font-weight="900" font-size="36" letter-spacing="4" fill="#f0f0f0">SWFT<tspan fill="#c8f135">.</tspan></text>

  <!-- Tagline chip top-right -->
  <rect x="780" y="56" width="228" height="34" rx="17" fill="#c8f135" fill-opacity="0.08" stroke="#c8f135" stroke-opacity="0.2" stroke-width="1"/>
  <text x="894" y="79" font-family="Arial, sans-serif" font-weight="700" font-size="12" fill="#c8f135" text-anchor="middle" letter-spacing="1.5">AI-POWERED CRM</text>

  <!-- Main Headline -->
  <text x="540" y="210" font-family="Arial Black, Arial, sans-serif" font-weight="900" font-size="72" fill="#f0f0f0" text-anchor="middle" letter-spacing="5">STILL RUNNING YOUR</text>
  <text x="540" y="290" font-family="Arial Black, Arial, sans-serif" font-weight="900" font-size="72" fill="#f0f0f0" text-anchor="middle" letter-spacing="5">BUSINESS ON</text>
  <text x="540" y="380" font-family="Arial Black, Arial, sans-serif" font-weight="900" font-size="80" fill="#c8f135" text-anchor="middle" letter-spacing="6">SPREADSHEETS?</text>

  <!-- Dashboard mockup card -->
  <g clip-path="url(#roundCard)">
    <rect x="64" y="420" width="952" height="380" rx="20" fill="url(#cardGrad)" stroke="#1f1f1f" stroke-width="1"/>

    <!-- Card top bar -->
    <rect x="64" y="420" width="952" height="48" fill="#141414"/>
    <circle cx="92" cy="444" r="6" fill="#ff5252" opacity="0.7"/>
    <circle cx="112" cy="444" r="6" fill="#f5a623" opacity="0.7"/>
    <circle cx="132" cy="444" r="6" fill="#c8f135" opacity="0.7"/>
    <text x="540" y="450" font-family="monospace" font-size="11" fill="#7a7a7a" text-anchor="middle">goswft.com/dashboard</text>

    <!-- KPI Cards Row -->
    <rect x="88" y="488" width="210" height="90" rx="12" fill="#181818" stroke="#2c2c2c" stroke-width="1"/>
    <rect x="88" y="488" width="210" height="2.5" rx="1" fill="#c8f135"/>
    <text x="104" y="516" font-family="monospace" font-size="10" fill="#7a7a7a" letter-spacing="1">REVENUE</text>
    <text x="104" y="554" font-family="Arial Black, Arial, sans-serif" font-weight="900" font-size="28" fill="#f0f0f0">$48,250</text>
    <text x="104" y="570" font-family="Arial, sans-serif" font-size="10" fill="#c8f135">+24% this month</text>

    <rect x="314" y="488" width="210" height="90" rx="12" fill="#181818" stroke="#2c2c2c" stroke-width="1"/>
    <rect x="314" y="488" width="210" height="2.5" rx="1" fill="#4d9fff"/>
    <text x="330" y="516" font-family="monospace" font-size="10" fill="#7a7a7a" letter-spacing="1">ACTIVE JOBS</text>
    <text x="330" y="554" font-family="Arial Black, Arial, sans-serif" font-weight="900" font-size="28" fill="#f0f0f0">37</text>
    <text x="330" y="570" font-family="Arial, sans-serif" font-size="10" fill="#4d9fff">12 scheduled today</text>

    <rect x="540" y="488" width="210" height="90" rx="12" fill="#181818" stroke="#2c2c2c" stroke-width="1"/>
    <rect x="540" y="488" width="210" height="2.5" rx="1" fill="#f5a623"/>
    <text x="556" y="516" font-family="monospace" font-size="10" fill="#7a7a7a" letter-spacing="1">QUOTES SENT</text>
    <text x="556" y="554" font-family="Arial Black, Arial, sans-serif" font-weight="900" font-size="28" fill="#f0f0f0">84</text>
    <text x="556" y="570" font-family="Arial, sans-serif" font-size="10" fill="#f5a623">68% close rate</text>

    <rect x="766" y="488" width="210" height="90" rx="12" fill="#181818" stroke="#2c2c2c" stroke-width="1"/>
    <rect x="766" y="488" width="210" height="2.5" rx="1" fill="#c8f135"/>
    <text x="782" y="516" font-family="monospace" font-size="10" fill="#7a7a7a" letter-spacing="1">5-STAR REVIEWS</text>
    <text x="782" y="554" font-family="Arial Black, Arial, sans-serif" font-weight="900" font-size="28" fill="#f0f0f0">142</text>
    <text x="782" y="570" font-family="Arial, sans-serif" font-size="10" fill="#c8f135">+8 this week</text>

    <!-- Job list rows -->
    <rect x="88" y="596" width="888" height="36" rx="8" fill="#141414"/>
    <circle cx="110" cy="614" r="4" fill="#c8f135"/>
    <text x="126" y="618" font-family="Arial, sans-serif" font-size="12" fill="#f0f0f0">Johnson Kitchen Remodel</text>
    <text x="530" y="618" font-family="monospace" font-size="11" fill="#7a7a7a">$12,400</text>
    <rect x="700" y="603" width="80" height="22" rx="11" fill="#c8f135" fill-opacity="0.08"/>
    <text x="740" y="618" font-family="Arial, sans-serif" font-weight="700" font-size="10" fill="#c8f135" text-anchor="middle">IN PROGRESS</text>
    <text x="860" y="618" font-family="monospace" font-size="10" fill="#7a7a7a">Apr 9</text>

    <rect x="88" y="640" width="888" height="36" rx="8" fill="transparent"/>
    <circle cx="110" cy="658" r="4" fill="#4d9fff"/>
    <text x="126" y="662" font-family="Arial, sans-serif" font-size="12" fill="#f0f0f0">Smith HVAC Install</text>
    <text x="530" y="662" font-family="monospace" font-size="11" fill="#7a7a7a">$8,750</text>
    <rect x="700" y="647" width="80" height="22" rx="11" fill="#4d9fff" fill-opacity="0.08"/>
    <text x="740" y="662" font-family="Arial, sans-serif" font-weight="700" font-size="10" fill="#4d9fff" text-anchor="middle">SCHEDULED</text>
    <text x="860" y="662" font-family="monospace" font-size="10" fill="#7a7a7a">Apr 11</text>

    <rect x="88" y="684" width="888" height="36" rx="8" fill="#141414"/>
    <circle cx="110" cy="702" r="4" fill="#f5a623"/>
    <text x="126" y="706" font-family="Arial, sans-serif" font-size="12" fill="#f0f0f0">Garcia Roof Repair</text>
    <text x="530" y="706" font-family="monospace" font-size="11" fill="#7a7a7a">$4,200</text>
    <rect x="700" y="691" width="80" height="22" rx="11" fill="#f5a623" fill-opacity="0.08"/>
    <text x="740" y="706" font-family="Arial, sans-serif" font-weight="700" font-size="10" fill="#f5a623" text-anchor="middle">QUOTE SENT</text>
    <text x="860" y="706" font-family="monospace" font-size="10" fill="#7a7a7a">Apr 8</text>

    <!-- Fade overlay at bottom -->
    <rect x="64" y="740" width="952" height="60" fill="url(#bgGrad)" opacity="0.85"/>
  </g>

  <!-- Feature pills -->
  <g>
    <rect x="120" y="828" width="130" height="36" rx="18" fill="#181818" stroke="#2c2c2c" stroke-width="1"/>
    <text x="185" y="851" font-family="Arial, sans-serif" font-weight="600" font-size="12" fill="#f0f0f0" text-anchor="middle">Invoicing</text>

    <rect x="268" y="828" width="130" height="36" rx="18" fill="#181818" stroke="#2c2c2c" stroke-width="1"/>
    <text x="333" y="851" font-family="Arial, sans-serif" font-weight="600" font-size="12" fill="#f0f0f0" text-anchor="middle">Scheduling</text>

    <rect x="416" y="828" width="110" height="36" rx="18" fill="#181818" stroke="#2c2c2c" stroke-width="1"/>
    <text x="471" y="851" font-family="Arial, sans-serif" font-weight="600" font-size="12" fill="#f0f0f0" text-anchor="middle">Quotes</text>

    <rect x="544" y="828" width="130" height="36" rx="18" fill="#181818" stroke="#2c2c2c" stroke-width="1"/>
    <text x="609" y="851" font-family="Arial, sans-serif" font-weight="600" font-size="12" fill="#f0f0f0" text-anchor="middle">SMS & Email</text>

    <rect x="692" y="828" width="140" height="36" rx="18" fill="rgba(200,241,53,0.08)" stroke="#c8f135" stroke-opacity="0.25" stroke-width="1"/>
    <text x="762" y="851" font-family="Arial, sans-serif" font-weight="700" font-size="12" fill="#c8f135" text-anchor="middle">AI Follow-ups</text>

    <rect x="850" y="828" width="110" height="36" rx="18" fill="#181818" stroke="#2c2c2c" stroke-width="1"/>
    <text x="905" y="851" font-family="Arial, sans-serif" font-weight="600" font-size="12" fill="#f0f0f0" text-anchor="middle">Reviews</text>
  </g>

  <!-- Bottom section -->
  <text x="540" y="920" font-family="Arial, sans-serif" font-weight="400" font-size="18" fill="#7a7a7a" text-anchor="middle">One platform. Everything you need to run your business.</text>

  <!-- CTA Button -->
  <rect x="340" y="950" width="400" height="56" rx="12" fill="#c8f135"/>
  <text x="540" y="986" font-family="Arial Black, Arial, sans-serif" font-weight="900" font-size="18" fill="#0a0a0a" text-anchor="middle" letter-spacing="1.5">START YOUR FREE TRIAL</text>

  <!-- Bottom trust line -->
  <text x="540" y="1040" font-family="Arial, sans-serif" font-size="13" fill="#444444" text-anchor="middle">14-day free trial  |  Set up in under 2 minutes  |  Cancel anytime</text>
</svg>